<svg xmlns="http://www.w3.org/2000/svg" viewBox="0 0 300 240" role="img" width="300" height="240">
<defs><linearGradient id="cfr" x1="0" y1="0" x2="1" y2="0"><stop offset="0%" stop-color="#a9c8ec"/><stop offset="48%" stop-color="#dce9f8"/><stop offset="100%" stop-color="#7ba7db"/></linearGradient></defs><path d="M 106.0 64 L 72.0 180 A 78 24 0 0 0 228.0 180 L 194.0 64 A 44 15 0 0 1 106.0 64 Z" fill="url(#cfr)" stroke="none"/>
<line x1="106.0" y1="64" x2="72.0" y2="180" stroke="#2b4d74" stroke-width="1.6"/>
<line x1="194.0" y1="64" x2="228.0" y2="180" stroke="#2b4d74" stroke-width="1.6"/>
<path d="M 72.0 180 A 78 24 0 0 0 228.0 180" fill="none" stroke="#2b4d74" stroke-width="1.6"/>
<path d="M 72.0 180 A 78 24 0 0 1 228.0 180" fill="none" stroke="#9fb4cc" stroke-width="1.2" stroke-dasharray="4 3"/>
<ellipse cx="150.0" cy="64" rx="44" ry="15" fill="#dce9f8" stroke="#2b4d74" stroke-width="1.6"/>
<line x1="150.0" y1="64.0" x2="194.0" y2="64.0" stroke="#b23b3b" stroke-width="1.3"/>
<text x="172.0" y="53.0" fill="#b23b3b" font-family="Georgia, serif" font-style="italic" font-size="16" text-anchor="middle" dominant-baseline="middle">r</text>
<line x1="150.0" y1="180.0" x2="228.0" y2="180.0" stroke="#b23b3b" stroke-width="1.3"/>
<text x="189.0" y="196.0" fill="#b23b3b" font-family="Georgia, serif" font-style="italic" font-size="16" text-anchor="middle" dominant-baseline="middle">R</text>
<line x1="56.0" y1="64.0" x2="56.0" y2="180.0" stroke="#b23b3b" stroke-width="1.3"/>
<text x="46.0" y="122.0" fill="#b23b3b" font-family="Georgia, serif" font-style="italic" font-size="16" text-anchor="middle" dominant-baseline="middle">h</text>
</svg>
