<svg xmlns="http://www.w3.org/2000/svg" viewBox="0 0 300 240" role="img" width="300" height="240">
<defs><linearGradient id="cyl" x1="0" y1="0" x2="1" y2="0"><stop offset="0%" stop-color="#a9c8ec"/><stop offset="45%" stop-color="#dce9f8"/><stop offset="100%" stop-color="#7ba7db"/></linearGradient></defs><path d="M 82.0 64 L 82.0 176 A 68 22 0 0 0 218.0 176 L 218.0 64 Z" fill="url(#cyl)" stroke="none"/>
<line x1="82.0" y1="64" x2="82.0" y2="176" stroke="#2b4d74" stroke-width="1.6"/>
<line x1="218.0" y1="64" x2="218.0" y2="176" stroke="#2b4d74" stroke-width="1.6"/>
<path d="M 82.0 176 A 68 22 0 0 0 218.0 176" fill="none" stroke="#2b4d74" stroke-width="1.6"/>
<path d="M 82.0 176 A 68 22 0 0 1 218.0 176" fill="none" stroke="#9fb4cc" stroke-width="1.2" stroke-dasharray="4 3"/>
<ellipse cx="150.0" cy="64" rx="68" ry="22" fill="#dce9f8" stroke="#2b4d74" stroke-width="1.6"/>
<line x1="150.0" y1="64.0" x2="218.0" y2="64.0" stroke="#b23b3b" stroke-width="1.3"/>
<text x="184.0" y="53.0" fill="#b23b3b" font-family="Georgia, serif" font-style="italic" font-size="16" text-anchor="middle" dominant-baseline="middle">r</text>
<line x1="234.0" y1="64.0" x2="234.0" y2="176.0" stroke="#b23b3b" stroke-width="1.3"/>
<text x="244.0" y="120.0" fill="#b23b3b" font-family="Georgia, serif" font-style="italic" font-size="16" text-anchor="middle" dominant-baseline="middle">h</text>
</svg>
