<svg xmlns="http://www.w3.org/2000/svg" viewBox="0 0 300 240" role="img" width="300" height="240">
<line x1="150.0" y1="146.7" x2="170.2" y2="93.3" stroke="#9fb4cc" stroke-width="1.1" stroke-dasharray="4 3" stroke-linecap="round"/>
<line x1="150.0" y1="146.7" x2="97.2" y2="146.7" stroke="#9fb4cc" stroke-width="1.1" stroke-dasharray="4 3" stroke-linecap="round"/>
<line x1="129.8" y1="60.4" x2="170.2" y2="93.3" stroke="#9fb4cc" stroke-width="1.1" stroke-dasharray="4 3" stroke-linecap="round"/>
<line x1="150.0" y1="146.7" x2="182.7" y2="179.6" stroke="#9fb4cc" stroke-width="1.1" stroke-dasharray="4 3" stroke-linecap="round"/>
<line x1="215.3" y1="93.3" x2="170.2" y2="93.3" stroke="#9fb4cc" stroke-width="1.1" stroke-dasharray="4 3" stroke-linecap="round"/>
<line x1="84.7" y1="93.3" x2="97.2" y2="146.7" stroke="#9fb4cc" stroke-width="1.1" stroke-dasharray="4 3" stroke-linecap="round"/>
<line x1="84.7" y1="93.3" x2="129.8" y2="60.4" stroke="#9fb4cc" stroke-width="1.1" stroke-dasharray="4 3" stroke-linecap="round"/>
<line x1="223.0" y1="146.7" x2="182.7" y2="179.6" stroke="#9fb4cc" stroke-width="1.1" stroke-dasharray="4 3" stroke-linecap="round"/>
<line x1="97.2" y1="179.6" x2="97.2" y2="146.7" stroke="#9fb4cc" stroke-width="1.1" stroke-dasharray="4 3" stroke-linecap="round"/>
<line x1="215.3" y1="93.3" x2="223.0" y2="146.7" stroke="#9fb4cc" stroke-width="1.1" stroke-dasharray="4 3" stroke-linecap="round"/>
<line x1="150.0" y1="40.0" x2="129.8" y2="60.4" stroke="#9fb4cc" stroke-width="1.1" stroke-dasharray="4 3" stroke-linecap="round"/>
<line x1="150.0" y1="200.0" x2="182.7" y2="179.6" stroke="#9fb4cc" stroke-width="1.1" stroke-dasharray="4 3" stroke-linecap="round"/>
<line x1="215.3" y1="93.3" x2="202.8" y2="60.4" stroke="#9fb4cc" stroke-width="1.1" stroke-dasharray="4 3" stroke-linecap="round"/>
<line x1="84.7" y1="93.3" x2="77.0" y2="93.3" stroke="#9fb4cc" stroke-width="1.1" stroke-dasharray="4 3" stroke-linecap="round"/>
<line x1="150.0" y1="200.0" x2="97.2" y2="179.6" stroke="#9fb4cc" stroke-width="1.1" stroke-dasharray="4 3" stroke-linecap="round"/>
<line x1="150.0" y1="40.0" x2="202.8" y2="60.4" stroke="#2b4d74" stroke-width="1.7" stroke-linecap="round"/>
<line x1="215.3" y1="146.7" x2="223.0" y2="146.7" stroke="#2b4d74" stroke-width="1.7" stroke-linecap="round"/>
<line x1="84.7" y1="146.7" x2="97.2" y2="179.6" stroke="#2b4d74" stroke-width="1.7" stroke-linecap="round"/>
<line x1="150.0" y1="40.0" x2="117.3" y2="60.4" stroke="#2b4d74" stroke-width="1.7" stroke-linecap="round"/>
<line x1="150.0" y1="200.0" x2="170.2" y2="179.6" stroke="#2b4d74" stroke-width="1.7" stroke-linecap="round"/>
<line x1="84.7" y1="146.7" x2="77.0" y2="93.3" stroke="#2b4d74" stroke-width="1.7" stroke-linecap="round"/>
<line x1="117.3" y1="60.4" x2="77.0" y2="93.3" stroke="#2b4d74" stroke-width="1.7" stroke-linecap="round"/>
<line x1="202.8" y1="93.3" x2="202.8" y2="60.4" stroke="#2b4d74" stroke-width="1.7" stroke-linecap="round"/>
<line x1="215.3" y1="146.7" x2="170.2" y2="179.6" stroke="#2b4d74" stroke-width="1.7" stroke-linecap="round"/>
<line x1="215.3" y1="146.7" x2="202.8" y2="93.3" stroke="#2b4d74" stroke-width="1.7" stroke-linecap="round"/>
<line x1="84.7" y1="146.7" x2="129.8" y2="146.7" stroke="#2b4d74" stroke-width="1.7" stroke-linecap="round"/>
<line x1="150.0" y1="93.3" x2="117.3" y2="60.4" stroke="#2b4d74" stroke-width="1.7" stroke-linecap="round"/>
<line x1="129.8" y1="146.7" x2="170.2" y2="179.6" stroke="#2b4d74" stroke-width="1.7" stroke-linecap="round"/>
<line x1="150.0" y1="93.3" x2="202.8" y2="93.3" stroke="#2b4d74" stroke-width="1.7" stroke-linecap="round"/>
<line x1="150.0" y1="93.3" x2="129.8" y2="146.7" stroke="#2b4d74" stroke-width="1.7" stroke-linecap="round"/>
</svg>
