<svg xmlns="http://www.w3.org/2000/svg" viewBox="0 0 300 240" role="img" width="300" height="240">
<polygon points="155.6,44.0 192.5,66.7 186.8,104.1 144.4,118.8 107.5,96.1 113.2,58.7" fill="#b0cbeb" stroke="#2b4d74" stroke-width="1.4" stroke-linejoin="round"/>
<polygon points="144.4,196.0 186.8,181.3 186.8,104.1 144.4,118.8" fill="#dce9f8" stroke="#2b4d74" stroke-width="1.4" stroke-linejoin="round"/>
<polygon points="107.5,173.3 144.4,196.0 144.4,118.8 107.5,96.1" fill="#c1d6f0" stroke="#2b4d74" stroke-width="1.4" stroke-linejoin="round"/>
<polygon points="186.8,181.3 192.5,143.9 192.5,66.7 186.8,104.1" fill="#c6daf2" stroke="#2b4d74" stroke-width="1.4" stroke-linejoin="round"/>
<polygon points="113.2,135.9 107.5,173.3 107.5,96.1 113.2,58.7" fill="#c6daf2" stroke="#2b4d74" stroke-width="1.4" stroke-linejoin="round"/>
<polygon points="192.5,143.9 155.6,121.2 155.6,44.0 192.5,66.7" fill="#c1d6f0" stroke="#2b4d74" stroke-width="1.4" stroke-linejoin="round"/>
<polygon points="155.6,121.2 113.2,135.9 113.2,58.7 155.6,44.0" fill="#dce9f8" stroke="#2b4d74" stroke-width="1.4" stroke-linejoin="round"/>
<polygon points="113.2,135.9 107.5,173.3 144.4,196.0 186.8,181.3 192.5,143.9 155.6,121.2" fill="#b0cbeb" stroke="#2b4d74" stroke-width="1.4" stroke-linejoin="round"/>
<text x="165.6" y="203.6" fill="#b23b3b" font-family="Georgia, serif" font-style="italic" font-size="16" text-anchor="middle" dominant-baseline="middle">a</text>
<text x="209.5" y="105.3" fill="#b23b3b" font-family="Georgia, serif" font-style="italic" font-size="16" text-anchor="middle" dominant-baseline="middle">h</text>
</svg>
