<svg xmlns="http://www.w3.org/2000/svg" viewBox="0 0 300 240" role="img" width="300" height="240">
<polygon points="187.4,101.1 173.1,200.0 89.4,138.9" fill="#d1e2f5" stroke="#2b4d74" stroke-width="1.4" stroke-linejoin="round"/>
<polygon points="112.6,40.0 187.4,101.1 89.4,138.9" fill="#b5ceec" stroke="#2b4d74" stroke-width="1.4" stroke-linejoin="round"/>
<polygon points="248.0,138.9 187.4,101.1 173.1,200.0" fill="#d8e6f7" stroke="#2b4d74" stroke-width="1.4" stroke-linejoin="round"/>
<polygon points="112.6,40.0 210.6,40.0 187.4,101.1" fill="#acc8ea" stroke="#2b4d74" stroke-width="1.4" stroke-linejoin="round"/>
<polygon points="89.4,200.0 173.1,200.0 89.4,138.9" fill="#caddf3" stroke="#2b4d74" stroke-width="1.4" stroke-linejoin="round"/>
<polygon points="112.6,40.0 52.0,101.1 89.4,138.9" fill="#acc8ea" stroke="#2b4d74" stroke-width="1.4" stroke-linejoin="round"/>
<polygon points="248.0,138.9 210.6,40.0 187.4,101.1" fill="#c0d6f0" stroke="#2b4d74" stroke-width="1.4" stroke-linejoin="round"/>
<polygon points="52.0,101.1 89.4,200.0 89.4,138.9" fill="#acc8ea" stroke="#2b4d74" stroke-width="1.4" stroke-linejoin="round"/>
<polygon points="248.0,138.9 187.4,200.0 173.1,200.0" fill="#d5e4f6" stroke="#2b4d74" stroke-width="1.4" stroke-linejoin="round"/>
<polygon points="126.9,40.0 112.6,40.0 210.6,40.0" fill="#acc8ea" stroke="#2b4d74" stroke-width="1.4" stroke-linejoin="round"/>
<polygon points="187.4,200.0 89.4,200.0 173.1,200.0" fill="#acc8ea" stroke="#2b4d74" stroke-width="1.4" stroke-linejoin="round"/>
<polygon points="126.9,40.0 112.6,40.0 52.0,101.1" fill="#d5e4f6" stroke="#2b4d74" stroke-width="1.4" stroke-linejoin="round"/>
<polygon points="210.6,101.1 248.0,138.9 210.6,40.0" fill="#acc8ea" stroke="#2b4d74" stroke-width="1.4" stroke-linejoin="round"/>
<polygon points="112.6,138.9 52.0,101.1 89.4,200.0" fill="#c0d6f0" stroke="#2b4d74" stroke-width="1.4" stroke-linejoin="round"/>
<polygon points="210.6,101.1 248.0,138.9 187.4,200.0" fill="#acc8ea" stroke="#2b4d74" stroke-width="1.4" stroke-linejoin="round"/>
<polygon points="126.9,40.0 210.6,101.1 210.6,40.0" fill="#caddf3" stroke="#2b4d74" stroke-width="1.4" stroke-linejoin="round"/>
<polygon points="112.6,138.9 187.4,200.0 89.4,200.0" fill="#acc8ea" stroke="#2b4d74" stroke-width="1.4" stroke-linejoin="round"/>
<polygon points="112.6,138.9 126.9,40.0 52.0,101.1" fill="#d8e6f7" stroke="#2b4d74" stroke-width="1.4" stroke-linejoin="round"/>
<polygon points="112.6,138.9 210.6,101.1 187.4,200.0" fill="#b5ceec" stroke="#2b4d74" stroke-width="1.4" stroke-linejoin="round"/>
<polygon points="112.6,138.9 126.9,40.0 210.6,101.1" fill="#d1e2f5" stroke="#2b4d74" stroke-width="1.4" stroke-linejoin="round"/>
</svg>
