<svg xmlns="http://www.w3.org/2000/svg" viewBox="0 0 300 240" role="img" width="300" height="240">
<polygon points="154.0,44.0 194.9,75.1 171.2,116.4 115.8,110.9 105.1,66.1" fill="#b0cbeb" stroke="#2b4d74" stroke-width="1.4" stroke-linejoin="round"/>
<polygon points="115.8,190.4 171.2,196.0 171.2,116.4 115.8,110.9" fill="#d4e3f5" stroke="#2b4d74" stroke-width="1.4" stroke-linejoin="round"/>
<polygon points="171.2,196.0 194.9,154.7 194.9,75.1 171.2,116.4" fill="#d1e2f5" stroke="#2b4d74" stroke-width="1.4" stroke-linejoin="round"/>
<polygon points="105.1,145.7 115.8,190.4 115.8,110.9 105.1,66.1" fill="#acc8ea" stroke="#2b4d74" stroke-width="1.4" stroke-linejoin="round"/>
<polygon points="194.9,154.7 154.0,123.6 154.0,44.0 194.9,75.1" fill="#bcd3ee" stroke="#2b4d74" stroke-width="1.4" stroke-linejoin="round"/>
<polygon points="154.0,123.6 105.1,145.7 105.1,66.1 154.0,44.0" fill="#dce9f8" stroke="#2b4d74" stroke-width="1.4" stroke-linejoin="round"/>
<polygon points="105.1,145.7 115.8,190.4 171.2,196.0 194.9,154.7 154.0,123.6" fill="#b0cbeb" stroke="#2b4d74" stroke-width="1.4" stroke-linejoin="round"/>
<text x="143.5" y="208.2" fill="#b23b3b" font-family="Georgia, serif" font-style="italic" font-size="16" text-anchor="middle" dominant-baseline="middle">a</text>
<text x="211.9" y="114.9" fill="#b23b3b" font-family="Georgia, serif" font-style="italic" font-size="16" text-anchor="middle" dominant-baseline="middle">h</text>
</svg>
